<?xml version="1.0" encoding="UTF-8"?>
<!-- Generator: visioncortex VTracer 0.6.1 -->
<svg version="1.1" xmlns="http://www.w3.org/2000/svg" width="1280" height="1280">
<path d="M0 0 C422.4 0 844.8 0 1280 0 C1280 422.4 1280 844.8 1280 1280 C857.6 1280 435.2 1280 0 1280 C0 857.6 0 435.2 0 0 Z " fill="#EFF8F8" transform="translate(0,0)"/>
<path d="M0 0 C0 3.66299528 -0.87905346 4.44922999 -3 7.375 C-22.68577326 37.48265322 -26.53737399 81.74767376 -20.03515625 116.30078125 C-16.96362312 130.83489779 -12.2289687 144.02993766 -5 157 C-4.53464844 157.85464844 -4.06929687 158.70929688 -3.58984375 159.58984375 C0.52931162 166.70234033 6.7266951 170.60417549 13.625 174.75 C27.5683942 183.32624326 39.46713645 193.42932379 51 205 C51.62261719 205.5878125 52.24523437 206.175625 52.88671875 206.78125 C62.7351882 216.18109069 70.15805261 227.30247704 77 239 C77.68711429 240.14606467 78.37461974 241.29189491 79.0625 242.4375 C88.69055647 258.65604171 94.7968258 275.96510316 98.9375 294.3125 C99.173479 295.33400146 99.40945801 296.35550293 99.65258789 297.40795898 C99.85875732 298.36259033 100.06492676 299.31722168 100.27734375 300.30078125 C100.46546631 301.15841064 100.65358887 302.01604004 100.84741211 302.8996582 C100.89776611 303.592771 100.94812012 304.28588379 101 305 C100.34 305.66 99.68 306.32 99 307 C97.93265625 306.63648438 96.8653125 306.27296875 95.765625 305.8984375 C86.55733669 302.78440743 77.31744109 299.83528508 67.99121094 297.09326172 C64.25442304 295.99162524 60.54178085 294.85862684 56.85546875 293.59765625 C49.61385827 291.15433261 42.23101634 289.14966707 34.88183594 287.05761719 C27.69034545 285.00745816 20.55679148 282.88284325 13.4765625 280.46875 C6.5803476 278.13818071 -0.38551124 276.2104638 -7.43322754 274.40490723 C-20.25523409 271.11742684 -33.0059285 267.61145543 -45.73165894 263.97042847 C-60.06843985 259.86906776 -74.38430072 256.00277136 -89 253 C-89.03738281 254.08796875 -89.07476563 255.1759375 -89.11328125 256.296875 C-89.48312701 265.19349436 -90.2454195 273.47005954 -93 282 C-93.32742188 283.02222656 -93.65484375 284.04445313 -93.9921875 285.09765625 C-97.17295982 294.12446872 -101.89741793 301.96259948 -107 310 C-111.95998472 309.38367054 -115.93671966 307.20164371 -120.3125 304.9375 C-121.05306641 304.56044922 -121.79363281 304.18339844 -122.55664062 303.79492188 C-124.37387522 302.86871843 -126.18732404 301.93509371 -128 301 C-127 299 -126 297 -125 295 C-124.34 295 -123.68 295 -123 295 C-122.7525 294.154375 -122.505 293.30875 -122.25 292.4375 C-121.14817034 289.40746844 -119.81373313 286.83813077 -118.19140625 284.06640625 C-111.93411444 273.21359522 -107.94097613 261.84753751 -104 250 C-104.66 250 -105.32 250 -106 250 C-106 249.34 -106 248.68 -106 248 C-106.64066406 247.81824219 -107.28132813 247.63648438 -107.94140625 247.44921875 C-113.14395897 245.93729955 -118.07144327 244.24999329 -123 242 C-122.95359375 242.825 -122.9071875 243.65 -122.859375 244.5 C-122.26810725 263.42056784 -129.00946466 278.31097969 -139 294 C-146.44302097 291.60309494 -153.71837152 288.84737559 -161 286 C-159.67667778 282.3349164 -158.05184444 279.44902226 -155.75 276.3125 C-150.52155183 268.96674637 -146.10101362 261.45879781 -142.25 253.3125 C-141.95609375 252.69479736 -141.6621875 252.07709473 -141.359375 251.44067383 C-139.47014083 247.3489731 -138.13723264 243.34266777 -137 239 C-153.0572332 232.38288421 -169.5398673 227.03545127 -186.03674316 221.64312744 C-188.95090362 220.68850117 -191.86178728 219.72396979 -194.7734375 218.76171875 C-206.73482423 214.84135771 -218.75645861 211.33290521 -230.94116211 208.16894531 C-231.98151611 207.89791992 -233.02187012 207.62689453 -234.09375 207.34765625 C-235.01865234 207.11054932 -235.94355469 206.87344238 -236.89648438 206.62915039 C-239 206 -239 206 -240 205 C-240.1057671 203.08444032 -240.18452917 201.16735994 -240.25 199.25 C-240.57746985 195.14440784 -240.81867847 193.28571877 -243.0625 189.75 C-246.33197419 187.80222814 -248.31331792 187.27297008 -252.06640625 187.5 C-255.34720232 188.34836747 -256.96643739 190.4118294 -259 193 C-260.90477819 196.80955639 -260.17565535 200.40716321 -259 204.375 C-258.67 205.24125 -258.34 206.1075 -258 207 C-270.94922984 206.58093107 -270.94922984 206.58093107 -276 202 C-278.99940953 198.76120097 -281.97135957 195.49794057 -284.47265625 191.85546875 C-286.19466589 189.62258156 -287.49815574 188.3195568 -290 187 C-294.32516408 186.75217341 -298.34131132 187.58405028 -302.54541016 188.48486328 C-305.24501637 189.05142078 -307.95246984 189.54277193 -310.66796875 190.02734375 C-329.78830742 193.49377136 -348.73621218 197.83697225 -367.63671875 202.3359375 C-368.83445923 202.62102173 -368.83445923 202.62102173 -370.05639648 202.91186523 C-372.06487656 203.39314043 -374.07159634 203.88174646 -376.078125 204.37109375 C-379 205 -379 205 -382 205 C-379.05993588 208.97689833 -375.77764382 212.01129819 -371.875 215 C-371.27534424 215.46494873 -370.67568848 215.92989746 -370.05786133 216.40893555 C-362.18385447 222.46578693 -354.13105838 228.29393048 -346 234 C-345.20674316 234.5662207 -344.41348633 235.13244141 -343.59619141 235.71582031 C-342.80776855 236.26463867 -342.0193457 236.81345703 -341.20703125 237.37890625 C-340.49651611 237.87849854 -339.78600098 238.37809082 -339.05395508 238.89282227 C-335.234146 240.9518778 -332.05246348 240.01600224 -328 239 C-326.17855469 238.566875 -326.17855469 238.566875 -324.3203125 238.125 C-323.64500488 237.96402832 -322.96969727 237.80305664 -322.27392578 237.63720703 C-321.56478027 237.46817871 -320.85563477 237.29915039 -320.125 237.125 C-319.02454346 236.86178955 -319.02454346 236.86178955 -317.90185547 236.59326172 C-293.16670363 230.74233474 -263.96968035 227.39986248 -240 238 C-240 238.66 -240 239.32 -240 240 C-238.68 240.33 -237.36 240.66 -236 241 C-236.69222656 241.17015625 -237.38445312 241.3403125 -238.09765625 241.515625 C-251.55472252 244.84886408 -264.81674436 248.4344329 -277.92895508 252.94506836 C-285.45960073 255.52471902 -293.04502995 257.83744297 -300.6875 260.0625 C-309.20502428 262.55365872 -317.69225724 265.10890837 -326.125 267.875 C-327.45857544 268.30437866 -327.45857544 268.30437866 -328.8190918 268.74243164 C-329.62386963 269.01047607 -330.42864746 269.27852051 -331.2578125 269.5546875 C-332.31186279 269.90249268 -332.31186279 269.90249268 -333.38720703 270.25732422 C-335.20616775 270.89119407 -335.20616775 270.89119407 -336 273 C-334.89785156 273.4021875 -334.89785156 273.4021875 -333.7734375 273.8125 C-331.06429894 274.97246918 -328.99883823 276.26751455 -326.625 278 C-317.50252646 284.5218878 -308.20605704 290.81693309 -298.53515625 296.5 C-295.43541768 298.33405179 -292.37453331 300.22902161 -289.3125 302.125 C-284.38636317 305.16610892 -284.38636317 305.16610892 -279.375 308.0625 C-276.64634804 309.62894835 -274.06166314 311.27128589 -271.4375 313 C-263.9077615 317.8412963 -255.98444326 321.98455052 -248.109375 326.23046875 C-246.79549805 326.94275635 -246.79549805 326.94275635 -245.45507812 327.66943359 C-243.92047608 328.50113418 -242.38313856 329.32782975 -240.84179688 330.14697266 C-237.67323808 331.87296888 -236.04295909 332.93556136 -234 336 C-233.77190028 338.51314057 -233.65133247 340.92547582 -233.62109375 343.44140625 C-233.60409927 344.16488754 -233.5871048 344.88836884 -233.56959534 345.6337738 C-233.51650279 347.94326072 -233.47618438 350.25273032 -233.4375 352.5625 C-233.39356387 354.87574907 -233.34686183 357.18885947 -233.29469299 359.50193787 C-233.26275377 360.94084763 -233.23585797 362.37987983 -233.21446228 363.81898499 C-233.18681553 367.53412669 -233.18681553 367.53412669 -232 371 C-231.54625 370.505 -231.0925 370.01 -230.625 369.5 C-229 368 -229 368 -227 368 C-226.67 367.01 -226.34 366.02 -226 365 C-224.46875 363.4921875 -224.46875 363.4921875 -222.5 361.875 C-219.19175024 359.11713884 -216.33162284 356.18701006 -213.4375 353 C-209.49107143 349.05357143 -209.49107143 349.05357143 -205.5625 348.625 C-201.84429255 350.06009761 -198.34386125 351.67640347 -194.8203125 353.53515625 C-190.64470483 355.70392754 -186.35889367 357.61971594 -182.078125 359.5703125 C-179.02133599 360.99009014 -176.00720389 362.47839085 -173 364 C-173 364.66 -173 365.32 -173 366 C-172.01 366.33 -171.02 366.66 -170 367 C-171.03898438 367.51949219 -172.07796875 368.03898437 -173.1484375 368.57421875 C-173.81842773 368.909375 -174.48841797 369.24453125 -175.17871094 369.58984375 C-176.65800971 370.32916425 -178.13783861 371.06742485 -179.61816406 371.8046875 C-182.62052073 373.30127106 -185.61828354 374.79876277 -188.5859375 376.36328125 C-202.59709799 383.72293415 -218.64985747 390.16246437 -234 394 C-233.67 421.39 -233.34 448.78 -233 477 C-224.90867943 475.41211775 -224.90867943 475.41211775 -217.03125 473.3359375 C-215.45380005 472.86619507 -215.45380005 472.86619507 -213.84448242 472.38696289 C-212.74080322 472.05301514 -211.63712402 471.71906738 -210.5 471.375 C-209.32219971 471.02236084 -208.14439941 470.66972168 -206.9309082 470.30639648 C-197.93238574 467.60449966 -188.95182687 464.84446392 -179.97558594 462.06958008 C-167.93804237 458.35178529 -155.86743455 454.74556972 -143.796875 451.13671875 C-140.0719156 450.02153029 -136.34823488 448.90218135 -132.625 447.78125 C-118.88688115 443.64671483 -105.13772401 439.55177145 -91.375 435.5 C-90.25647644 435.17033737 -90.25647644 435.17033737 -89.11535645 434.83401489 C-87.00166134 434.21131035 -84.8876179 433.58980465 -82.7734375 432.96875 C-81.56091309 432.61232422 -80.34838867 432.25589844 -79.09912109 431.88867188 C-76 431 -76 431 -73.64379883 430.51879883 C-73.10134521 430.34759521 -72.5588916 430.1763916 -72 430 C-70.8545804 427.69246551 -70.8545804 427.69246551 -70 425 C-69.09394701 423.41905709 -68.15485495 421.85669458 -67.1875 420.3125 C-64.14899051 415.34785919 -61.52116655 410.24313398 -59 405 C-52.97968344 405.46617495 -48.76826958 406.75072951 -43.5 409.625 C-42.09025912 410.36137027 -40.67874895 411.09436176 -39.265625 411.82421875 C-38.55470703 412.19208496 -37.84378906 412.55995117 -37.11132812 412.93896484 C-33.87738105 414.56416535 -30.57524998 416.01065478 -27.25 417.4375 C-20.30666482 420.42370424 -13.40972266 423.50224887 -6.52832031 426.62866211 C3.00331574 430.94167788 12.64046559 435.00854788 22.28125 439.0703125 C24.6875 440.08854167 27.09375 441.10677083 29.5 442.125 C30.11166016 442.38104004 30.72332031 442.63708008 31.35351562 442.90087891 C33.16520027 443.65989251 34.97327109 444.4275136 36.78125 445.1953125 C37.83376953 445.63891113 38.88628906 446.08250977 39.97070312 446.53955078 C43.23888296 448.11516746 46.0302688 449.92485312 49 452 C44.91970215 457.73958099 40.49840362 462.85689093 35.5 467.8125 C34.45005859 468.85398193 34.45005859 468.85398193 33.37890625 469.91650391 C8.18302777 494.53716002 -21.97661915 506.54056453 -55 517 C-56.41650457 517.45003046 -57.83300848 517.90006299 -59.24951172 518.35009766 C-73.37644723 522.83060424 -87.54282745 527.17989041 -101.72900391 531.46899414 C-108.34139189 533.47534691 -114.92383604 535.56572414 -121.5 537.6875 C-133.25477175 541.47987829 -145.05880573 545.10362933 -156.86846924 548.72024536 C-167.39635932 551.94614438 -177.90223846 555.22368165 -188.375 558.625 C-199.14171814 562.12113949 -209.955129 565.43755474 -220.79541016 568.69613647 C-231.17570398 571.81728337 -241.51893561 575.03421437 -251.82299805 578.40063477 C-256.42296754 579.89537365 -261.01941287 581.29590631 -265.6953125 582.53515625 C-269.5814817 583.57073261 -273.2814092 584.81006694 -277.02392578 586.27197266 C-280.75638956 587.64709089 -284.60436236 588.63468749 -288.4375 589.6875 C-298.73740765 592.57255024 -308.92063247 595.78091279 -319.09765625 599.0703125 C-320.0633252 599.38129883 -321.02899414 599.69228516 -322.02392578 600.01269531 C-324.10465261 600.70297089 -326.17542612 601.42365683 -328.23779297 602.16699219 C-329.29240723 602.54243164 -330.34702148 602.91787109 -331.43359375 603.3046875 C-332.8556311 603.82651611 -332.8556311 603.82651611 -334.30639648 604.35888672 C-337.29119798 605.06930897 -339.05133621 604.68298577 -342 604 C-341.99962028 603.34665243 -341.99924056 602.69330487 -341.99884933 602.02015889 C-341.9764385 563.23954324 -341.95929692 524.45892842 -341.94893467 485.6783076 C-341.94768406 481.01486782 -341.94638973 476.35142805 -341.94506836 471.68798828 C-341.94480605 470.75963806 -341.94454374 469.83128784 -341.94427348 468.87480579 C-341.93993016 453.87168949 -341.93204999 438.86857705 -341.9228472 423.86546303 C-341.91347342 408.45426724 -341.90793652 393.04307345 -341.90591151 377.63187492 C-341.904544 368.13348481 -341.90023543 358.63510561 -341.89208353 349.13671885 C-341.88677007 342.61049469 -341.8852061 336.0842761 -341.88649862 329.55804993 C-341.88713485 325.80096818 -341.88620642 322.0439054 -341.88079453 318.28682709 C-340.56573974 294.35168643 -340.56573974 294.35168643 -344 271 C-345.64688547 270.28586382 -347.3183694 269.62796555 -349 269 C-350.92435783 267.81598917 -352.81874431 266.58245547 -354.6875 265.3125 C-355.74324219 264.59578125 -356.79898438 263.8790625 -357.88671875 263.140625 C-359.42779297 262.08101562 -359.42779297 262.08101562 -361 261 C-361.85207031 260.41734375 -362.70414062 259.8346875 -363.58203125 259.234375 C-374.75172734 251.51122488 -385.26900008 243.24542063 -395.484375 234.31591797 C-396.74825133 233.21857689 -398.02844593 232.14006633 -399.3125 231.06640625 C-408.29854484 223.51160646 -421.94715061 211.90282762 -424 200 C-423.42668945 199.67314209 -422.85337891 199.34628418 -422.26269531 199.00952148 C-420.55635865 198.03640309 -418.85024119 197.06290027 -417.14428711 196.08911133 C-415.20038363 194.97983195 -413.25587564 193.87161128 -411.31079102 192.7644043 C-406.47849604 190.00904548 -401.68512949 187.21192061 -396.9375 184.3125 C-389.39786976 179.88377736 -381.31894621 176.54080388 -373.32373047 173.03271484 C-370.23092302 171.65820597 -367.18075846 170.20494497 -364.125 168.75 C-347.43435754 161 -347.43435754 161 -342 161 C-342.00092179 160.34731958 -342.00184359 159.69463917 -342.00279331 159.02218056 C-342.02485637 143.15725343 -342.04141538 127.29233162 -342.05181217 111.42739296 C-342.05697333 103.75530065 -342.0640126 96.08321856 -342.07543945 88.41113281 C-342.08539179 81.72587591 -342.09185474 75.0406264 -342.09408849 68.3553623 C-342.09539466 64.81401298 -342.09847463 61.27268485 -342.10573006 57.73134232 C-342.11375481 53.78264207 -342.11399078 49.83396275 -342.11352539 45.88525391 C-342.11712067 44.70490067 -342.12071594 43.52454742 -342.12442017 42.3084259 C-342.1230455 41.23707901 -342.12167084 40.16573212 -342.12025452 39.06192017 C-342.12117631 38.12722208 -342.1220981 37.19252399 -342.12304783 36.22950172 C-342 34 -342 34 -341 32 C-335.35546268 32.6261477 -330.51822443 34.61102145 -325.3125 36.75 C-323.96369751 37.29624023 -323.96369751 37.29624023 -322.58764648 37.85351562 C-318.19904392 39.64280375 -313.85098665 41.48026113 -309.5625 43.5 C-302.61676973 46.7486329 -295.39354504 49.31850921 -288.22265625 52.01953125 C-283.85419827 53.66748401 -279.51644682 55.37597695 -275.1875 57.125 C-270.29780295 59.09887121 -265.38402557 60.98683421 -260.4375 62.8125 C-253.9137345 65.22229579 -247.48683191 67.83746519 -241.0625 70.5 C-234.53349059 73.20374118 -228.00054501 75.77951201 -221.3125 78.0625 C-212.77658909 80.97943698 -204.5337956 84.50280084 -196.24414062 88.04931641 C-184.97392755 92.82370824 -173.52665957 97.20630464 -162.0546875 101.46875 C-154.95750361 104.10694806 -147.92130095 106.81920246 -140.94921875 109.77734375 C-136.67380194 111.54980131 -132.34329683 113.17004705 -128.0078125 114.7890625 C-124.9106773 116.03596109 -121.96540094 117.46861384 -119 119 C-118.64421875 118.23816406 -118.64421875 118.23816406 -118.28125 117.4609375 C-109.59520886 100.77738287 -97.80221786 85.56771289 -86 71 C-85.5762207 70.47035645 -85.15244141 69.94071289 -84.71582031 69.39501953 C-70.93411059 52.27116575 -54.82143575 35.89015044 -37 23 C-36.04996094 22.25492187 -35.09992188 21.50984375 -34.12109375 20.7421875 C-28.16926463 16.09409238 -21.99455315 12.01114493 -15.5625 8.0625 C-14.40766113 7.35287109 -14.40766113 7.35287109 -13.22949219 6.62890625 C-9.56726687 4.41775134 -6.04557319 2.44430744 -2 1 C-1.34 0.67 -0.68 0.34 0 0 Z " fill="#001D35" transform="translate(775,334)"/>
<path d="M0 0 C0.49822266 0.51393311 0.99644531 1.02786621 1.50976562 1.55737305 C2.34314453 2.40525391 2.34314453 2.40525391 3.19335938 3.27026367 C3.76183594 3.86387695 4.3303125 4.45749023 4.91601562 5.0690918 C5.48449219 5.65110352 6.05296875 6.23311523 6.63867188 6.83276367 C8.23619568 8.46920627 9.82727032 10.11163097 11.41601562 11.7565918 C15.39825858 15.86839403 17.31827574 16.85328739 23.04101562 17.3190918 C24.04390625 17.40288086 25.04679688 17.48666992 26.08007812 17.57299805 C26.8509375 17.63358398 27.62179687 17.69416992 28.41601562 17.7565918 C28.09375 16.99217773 27.77148438 16.22776367 27.43945312 15.44018555 C26.21471129 12.22874417 25.99764479 10.17328697 26.41601562 6.7565918 C28.45595471 3.09876999 29.92020824 1.08713005 33.41601562 -1.2434082 C37.202318 -1.73997245 39.8080224 -2.05775671 43.23632812 -0.3215332 C46.14019781 2.06328731 47.29668887 3.99553432 47.88500977 7.74780273 C47.94809326 8.81804688 48.01117676 9.88829102 48.07617188 10.9909668 C48.14586182 12.07087891 48.21555176 13.15079102 48.28735352 14.26342773 C48.32981201 15.08617187 48.37227051 15.90891602 48.41601562 16.7565918 C49.4902478 17.04155518 49.4902478 17.04155518 50.58618164 17.33227539 C68.78688896 22.188295 86.73867679 27.57846219 104.61914062 33.49975586 C108.38264734 34.74554628 112.14912538 35.98201304 115.91601562 37.2175293 C118.29126757 38.00061968 120.66627871 38.78444094 123.04101562 39.5690918 C124.1001416 39.91770264 125.15926758 40.26631348 126.25048828 40.62548828 C132.81205976 42.81077144 139.2735994 45.19297906 145.71435547 47.71240234 C147.59759908 48.44027447 149.50061386 49.11812454 151.41601562 49.7565918 C149.33449293 62.06667227 142.29049114 73.54018087 135.41601562 83.7565918 C133.8219855 86.20807017 132.24389214 88.66969327 130.66601562 91.1315918 C130.25480469 91.77225586 129.84359375 92.41291992 129.41992188 93.07299805 C128.41815175 94.63389568 127.41701687 96.19520097 126.41601562 97.7565918 C127.64191406 97.89387695 127.64191406 97.89387695 128.89257812 98.03393555 C133.17840242 98.91295716 136.82737094 100.5092902 140.79101562 102.3190918 C141.52707031 102.64844727 142.263125 102.97780273 143.02148438 103.31713867 C144.8224612 104.12406985 146.61963743 104.9394744 148.41601562 105.7565918 C148.68800781 105.01280273 148.96 104.26901367 149.24023438 103.50268555 C150.34647567 100.9190057 151.55160446 99.05349849 153.22851562 96.8190918 C161.9330057 84.04966871 163.59457227 68.75874156 164.41601562 53.7565918 C170.27261468 55.41812191 175.87502903 57.22701096 181.41601562 59.7565918 C181.41601562 60.4165918 181.41601562 61.0765918 181.41601562 61.7565918 C182.07601563 61.7565918 182.73601562 61.7565918 183.41601562 61.7565918 C181.12023882 74.61294191 175.99245925 86.54313833 169.41601562 97.7565918 C168.45398402 99.48370365 167.49540653 101.21274604 166.54101562 102.9440918 C165.83312782 104.21517336 165.12497666 105.48610853 164.41601562 106.7565918 C163.75601562 106.7565918 163.09601563 106.7565918 162.41601562 106.7565918 C162.10664062 107.3753418 161.79726563 107.9940918 161.47851562 108.6315918 C160.79101562 110.0065918 160.10351562 111.3815918 159.41601562 112.7565918 C160.06957031 112.83780273 160.723125 112.91901367 161.39648438 113.00268555 C165.49661727 114.02639272 168.98863955 115.88398166 172.72851562 117.8190918 C173.46908203 118.19614258 174.20964844 118.57319336 174.97265625 118.96166992 C176.78989085 119.88787336 178.60333966 120.82149809 180.41601562 121.7565918 C180.41601562 121.0965918 180.41601562 120.4365918 180.41601562 119.7565918 C182.06601562 120.0865918 183.71601562 120.4165918 185.41601562 120.7565918 C185.41601562 121.4165918 185.41601562 122.0765918 185.41601562 122.7565918 C187.06601562 122.7565918 188.71601562 122.7565918 190.41601562 122.7565918 C191.215547 126.04355413 191.51260498 127.46682372 190.41601562 130.7565918 C191.07601563 130.7565918 191.73601562 130.7565918 192.41601562 130.7565918 C192.41601562 131.4165918 192.41601562 132.0765918 192.41601562 132.7565918 C193.14304687 133.01569336 193.87007812 133.27479492 194.61914062 133.54174805 C197.52244628 134.80282075 199.65691618 136.2723134 202.16601562 138.1940918 C209.6713589 143.76257229 217.51663109 148.76894444 225.41601562 153.7565918 C226.05055664 154.16055176 226.68509766 154.56451172 227.33886719 154.98071289 C242.46276847 164.56293986 258.54676022 171.82326748 275.41601562 177.7565918 C275.41601562 178.4165918 275.41601562 179.0765918 275.41601562 179.7565918 C276.40601563 180.0865918 277.39601563 180.4165918 278.41601562 180.7565918 C277.21220114 183.25020751 275.96172841 185.43802262 274.41601562 187.7565918 C273.75601562 187.7565918 273.09601563 187.7565918 272.41601562 187.7565918 C272.08601563 189.4065918 271.75601562 191.0565918 271.41601562 192.7565918 C267.04786987 194.00126194 264.03189376 193.42249277 259.67382812 192.2800293 C259.02840057 192.11290436 258.38297302 191.94577942 257.71798706 191.77359009 C256.35004457 191.41704959 254.98344874 191.05530704 253.61816406 190.6887207 C251.58496205 190.14337903 249.54806328 189.6145554 247.50976562 189.08862305 C236.91930102 186.32201043 226.4057928 183.18632834 216.22851562 179.1315918 C211.89260508 177.44327265 207.38170887 176.45824254 202.85742188 175.4050293 C200.41601562 174.7565918 200.41601562 174.7565918 199.41601562 173.7565918 C192.14839341 172.52246727 184.76107472 172.64300841 177.41601562 172.7565918 C177.25166016 173.7137207 177.25166016 173.7137207 177.08398438 174.69018555 C176.92542969 175.51647461 176.766875 176.34276367 176.60351562 177.1940918 C176.37728516 178.4296582 176.37728516 178.4296582 176.14648438 179.69018555 C175.90542969 180.37209961 175.664375 181.05401367 175.41601562 181.7565918 C174.42601562 182.0865918 173.43601562 182.4165918 172.41601562 182.7565918 C172.41601562 183.4165918 172.41601562 184.0765918 172.41601562 184.7565918 C166.30539174 184.95230573 161.17039267 185.03436604 155.41601562 182.7565918 C153.66913941 182.28649294 151.91869904 181.82955418 150.16601562 181.3815918 C144.71444984 179.91018403 139.61115087 177.95095489 134.41601562 175.7565918 C133.38734375 175.34022461 132.35867188 174.92385742 131.29882812 174.49487305 C125.51230536 172.13923481 120.28730283 169.65011509 115.06445312 166.20581055 C111.84849692 164.4460469 108.55114572 163.53428148 105.04101562 162.5690918 C97.61336533 160.40863505 91.13653416 157.23713719 84.42773438 153.4284668 C81.49985677 151.68233676 81.49985677 151.68233676 78.41601562 150.7565918 C78.41601562 150.0965918 78.41601562 149.4365918 78.41601562 148.7565918 C77.59101562 148.6740918 76.76601563 148.5915918 75.91601562 148.5065918 C72.47752103 147.76977153 69.94668015 146.49482857 66.86914062 144.8503418 C63.86428394 143.51059678 60.8528452 142.75834781 57.66601562 141.9440918 C51.39596849 140.26581366 46.56691377 137.64485077 41.09179688 134.22924805 C37.36847106 132.18005997 34.6360831 132.03331753 30.41601562 131.7565918 C24.30199097 130.33706505 19.2827759 127.66664165 13.99804688 124.34643555 C11.45656908 122.78156193 8.87268492 121.38939441 6.22851562 120.0065918 C0.85569918 117.11765209 -4.16459286 113.79970685 -9.1940918 110.35913086 C-12.6281305 108.01763566 -16.09656145 105.87553265 -19.7265625 103.84204102 C-23.41070077 101.6890864 -26.92192477 99.26565405 -30.45898438 96.8815918 C-31.21050781 96.37756836 -31.96203125 95.87354492 -32.73632812 95.35424805 C-34.24698672 94.34109623 -35.75708406 93.32710703 -37.26660156 92.31225586 C-41.03265554 89.78409573 -44.80830945 87.27035226 -48.58398438 84.7565918 C-48.08898437 83.2715918 -48.08898437 83.2715918 -47.58398438 81.7565918 C-44.98974609 80.60913086 -44.98974609 80.60913086 -41.51367188 79.5222168 C-40.88962463 79.32355011 -40.26557739 79.12488342 -39.62261963 78.92019653 C-37.57157047 78.27056799 -35.51554936 77.6385191 -33.45898438 77.0065918 C-32.03403533 76.55916376 -30.60939503 76.11075135 -29.18505859 75.66137695 C-24.98999213 74.34241735 -20.78825165 73.04588281 -16.58398438 71.7565918 C-15.48892578 71.42046875 -14.39386719 71.0843457 -13.265625 70.73803711 C-9.50151363 69.58658927 -5.73596298 68.44030701 -1.96630859 67.30712891 C6.2568779 64.83111884 14.42455772 62.19210237 22.59130859 59.53662109 C29.64044135 57.26471146 36.69720312 55.29493618 43.91601562 53.64331055 C44.74101563 53.35069336 45.56601562 53.05807617 46.41601562 52.7565918 C46.74601563 51.7665918 47.07601562 50.7765918 47.41601562 49.7565918 C45.4063521 49.29006276 43.3944424 48.83255537 41.37695312 48.40112305 C39.3123526 47.95170473 37.25523253 47.4671021 35.20507812 46.95581055 C10.22421523 41.336448 -16.28140619 44.66490144 -40.56054688 52.0222168 C-47.62911486 53.73912995 -47.62911486 53.73912995 -51.36083984 51.86352539 C-53.37219755 50.58801757 -55.29009471 49.22982159 -57.20898438 47.8190918 C-57.90975098 47.31982178 -58.61051758 46.82055176 -59.33251953 46.30615234 C-61.42831637 44.80536689 -63.50801616 43.28465051 -65.58398438 41.7565918 C-66.16083984 41.33571289 -66.73769531 40.91483398 -67.33203125 40.48120117 C-74.23620453 35.43487816 -80.96380899 30.16895549 -87.58398438 24.7565918 C-88.30199219 24.17522461 -89.02 23.59385742 -89.75976562 22.99487305 C-91.40874774 21.63008424 -93.00324751 20.19987329 -94.58398438 18.7565918 C-94.58398438 18.0965918 -94.58398438 17.4365918 -94.58398438 16.7565918 C-68.35865907 10.22806233 -42.12664396 4.13084306 -15.52148438 -0.6809082 C-14.56902832 -0.85726807 -13.61657227 -1.03362793 -12.63525391 -1.21533203 C-11.7611084 -1.36768311 -10.88696289 -1.52003418 -9.98632812 -1.67700195 C-9.22827881 -1.81162842 -8.47022949 -1.94625488 -7.68920898 -2.08496094 C-4.56731572 -2.31992658 -2.48567035 -1.95122058 0 0 Z " fill="#F9FCFE" transform="translate(487.583984375,522.243408203125)"/>
<path d="M0 0 C5.36769124 0.0057076 10.735333 0.00229857 16.10302258 -0.00343895 C77.61835436 -0.05927017 77.61835436 -0.05927017 103.48168945 2.53271484 C109.13239593 3.06146208 114.78766146 3.4514609 120.45043945 3.82177734 C121.3691684 3.88200577 122.28789734 3.94223419 123.23446655 4.00428772 C124.16795929 4.06547287 125.10145203 4.12665802 126.06323242 4.18969727 C141.84078827 5.22468478 157.50121991 6.31781895 173.12866211 8.81152344 C175.16968278 9.11868788 177.20701809 9.36672828 179.2590332 9.58740234 C187.44998741 10.47358242 195.48122233 11.83605879 203.55981445 13.44287109 C204.55029785 13.63155762 205.54078125 13.82024414 206.5612793 14.01464844 C214.00969985 15.55308494 222.7218773 17.60493394 228.24731445 23.13037109 C228.18481445 25.56787109 228.18481445 25.56787109 227.24731445 28.13037109 C218.9611388 33.88061629 208.30396584 35.80056526 198.55981445 37.69287109 C197.49255127 37.90339111 196.42528809 38.11391113 195.32568359 38.33081055 C184.75171131 40.34501105 174.12332957 41.63373187 163.42480469 42.77075195 C159.88974295 43.17084 156.36754783 43.64515865 152.84106445 44.11474609 C142.86508789 45.40313404 132.84276983 46.02600419 122.80981445 46.69287109 C120.01396232 46.88155418 117.21821255 47.07156989 114.42259216 47.26365662 C112.70192499 47.3816072 110.98111764 47.49753891 109.26014709 47.61097717 C105.55600097 47.86243647 101.88399917 48.16549443 98.20141602 48.63842773 C90.99498574 49.46414573 83.72318756 49.50819359 76.4777832 49.68505859 C75.24736329 49.7164625 75.24736329 49.7164625 73.99208641 49.74850082 C54.75934944 50.2308946 35.52835008 50.28382772 16.29052734 50.26074219 C11.52988343 50.25506595 6.76929564 50.25844537 2.00865364 50.26416016 C-35.26835193 50.30254243 -72.49887012 49.97370465 -109.67569733 47.04342651 C-111.81310803 46.87562758 -113.95079263 46.71174571 -116.08856201 46.54858398 C-137.44476803 44.91112517 -158.65468419 42.91211619 -179.75268555 39.13037109 C-180.94845215 38.92412109 -182.14421875 38.71787109 -183.3762207 38.50537109 C-213.29786466 33.28671674 -213.29786466 33.28671674 -218.54174805 26.97802734 C-218.94135742 26.36830078 -219.3409668 25.75857422 -219.75268555 25.13037109 C-218.00320395 20.95265921 -216.10502449 19.89824836 -212.10864258 18.06347656 C-176.30223198 3.88191166 -132.77574961 4.9241805 -94.81088257 2.72592163 C-89.83544559 2.42965547 -84.9472206 2.02496553 -80.0059967 1.36010742 C-74.30322863 0.77868173 -68.554255 0.73007873 -62.8269043 0.57568359 C-61.70841378 0.54427969 -61.70841378 0.54427969 -60.5673275 0.51224136 C-40.38167429 -0.04058701 -20.19169636 -0.02164088 0 0 Z " fill="#CEDCDE" transform="translate(649.752685546875,959.86962890625)"/>
<path d="M0 0 C6.36066303 -0.4205397 11.58066144 1.11955022 17.625 3 C19.77406599 3.64936886 21.92383833 4.29640347 24.07421875 4.94140625 C25.20263184 5.28059082 26.33104492 5.61977539 27.49365234 5.96923828 C33.44901762 7.7199382 39.44556837 9.31743258 45.4375 10.9375 C55.74311094 13.74390827 65.92710757 16.81224439 76.07836914 20.1315918 C82.80530213 22.32464909 89.56076027 24.34630839 96.375 26.25 C102.50739349 27.96453013 108.51155019 29.79264437 114.46484375 32.06640625 C120.47307263 34.27898977 126.65363487 36.02922741 132.80078125 37.8125 C133.65027344 38.06 134.49976563 38.3075 135.375 38.5625 C136.10460937 38.77003906 136.83421875 38.97757813 137.5859375 39.19140625 C140.15044389 40.0503914 142.59381606 41.11391669 145.07128906 42.19458008 C148.55114682 43.64775106 152.12194687 44.83870026 155.6875 46.0625 C157.46380356 46.67893334 159.23982913 47.29616815 161.015625 47.9140625 C161.97275391 48.24696289 162.92988281 48.57986328 163.91601562 48.92285156 C180.59697681 54.74903908 197.19913359 60.75697991 213.68505859 67.11376953 C216.62613585 68.23970398 219.57719667 69.33754624 222.52978516 70.43286133 C252.8433329 81.68666581 252.8433329 81.68666581 255 86 C189.12119761 111.44804024 109.33035712 115.89286009 43.625 87.125 C25.65661464 78.97095642 9.11980676 68.37779347 -7 57.078125 C-10.44149477 54.6941729 -13.94660284 52.42323591 -17.48828125 50.19140625 C-17.98714844 49.79824219 -18.48601563 49.40507813 -19 49 C-19 48.34 -19 47.68 -19 47 C-19.66 47 -20.32 47 -21 47 C-20.42214806 42.97398237 -18.33109195 40.67171653 -15.8125 37.5625 C-7.09243127 26.29417962 -3.45182939 13.60876099 0 0 Z " fill="#001D35" transform="translate(699,606)"/>
<path d="M0 0 C1.71326139 0.31160192 3.42798992 0.61511117 5.1428833 0.91760254 C16.64974717 2.94834246 27.56022438 5.93670002 38.64434814 9.61584473 C42.18501734 10.76036528 45.76311302 11.76540433 49.34161377 12.78381348 C63.64064261 16.93199591 77.53240336 21.7913769 90.89825439 28.37219238 C93.15375317 29.4675478 95.42533571 30.52395539 97.70098877 31.57678223 C112.70688022 38.53590894 112.70688022 38.53590894 119.40411377 42.76818848 C121.97609811 44.39175359 124.59406617 45.92535902 127.22027588 47.45910645 C139.1952357 54.50106615 150.13886604 62.25371979 160.22833252 71.81896973 C162.47029982 73.93656512 164.74742424 75.9692739 167.09161377 77.97131348 C170.86330409 81.24011176 174.37558172 84.73657324 177.87677002 88.29162598 C179.40104779 89.8364624 180.95756056 91.34959614 182.52911377 92.84631348 C191.90411377 102.71473453 191.90411377 102.71473453 191.90411377 106.34631348 C191.34973633 106.17978271 190.79535889 106.01325195 190.22418213 105.8416748 C185.16177262 104.32187843 180.0979698 102.80684225 175.03302002 101.29553223 C173.16096366 100.73614645 171.28890939 100.17675361 169.41696167 99.61700439 C168.0965209 99.22216763 166.77602362 98.82751983 165.45547485 98.43304443 C158.41516049 96.3285274 151.38477469 94.20523615 144.39703369 91.93078613 C135.44758194 89.01878224 126.41195041 86.61602826 117.28936768 84.30725098 C107.69134507 81.8590597 98.17090979 79.17644813 88.64816284 76.45251465 C74.14713107 72.30505996 59.68665116 68.38336145 44.90411377 65.34631348 C44.86673096 66.43428223 44.82934814 67.52225098 44.79083252 68.64318848 C44.42098676 77.53980783 43.65869427 85.81637302 40.90411377 94.34631348 C40.57669189 95.36854004 40.24927002 96.3907666 39.91192627 97.44396973 C36.73115395 106.4707822 32.00669584 114.30891296 26.90411377 122.34631348 C21.94412904 121.72998401 17.96739411 119.54795719 13.59161377 117.28381348 C12.85104736 116.9067627 12.11048096 116.52971191 11.34747314 116.14123535 C9.53023855 115.21503191 7.71678973 114.28140719 5.90411377 113.34631348 C6.90411377 111.34631348 7.90411377 109.34631348 8.90411377 107.34631348 C9.56411377 107.34631348 10.22411377 107.34631348 10.90411377 107.34631348 C11.27536377 106.07787598 11.27536377 106.07787598 11.65411377 104.78381348 C12.75594343 101.75378192 14.09038064 99.18444425 15.71270752 96.41271973 C21.96999933 85.55990869 25.96313764 74.19385099 29.90411377 62.34631348 C29.24411377 62.34631348 28.58411377 62.34631348 27.90411377 62.34631348 C27.90411377 61.68631348 27.90411377 61.02631348 27.90411377 60.34631348 C27.26344971 60.16455566 26.62278564 59.98279785 25.96270752 59.79553223 C20.7601548 58.28361303 15.8326705 56.59630677 10.90411377 54.34631348 C10.95052002 55.17131348 10.99692627 55.99631348 11.04473877 56.84631348 C11.63600651 75.76688132 4.89464911 90.65729317 -5.09588623 106.34631348 C-12.5389072 103.94940842 -19.81425775 101.19368906 -27.09588623 98.34631348 C-25.77256401 94.68122987 -24.14773067 91.79533574 -21.84588623 88.65881348 C-16.61743806 81.31305985 -12.19689985 73.80511129 -8.34588623 65.65881348 C-8.05197998 65.04111084 -7.75807373 64.4234082 -7.45526123 63.7869873 C-5.56602707 59.69528657 -4.23311887 55.68898125 -3.09588623 51.34631348 C-19.15311943 44.72919769 -35.63575353 39.38176475 -52.13262939 33.98944092 C-55.04678985 33.03481464 -57.95767351 32.07028327 -60.86932373 31.10803223 C-72.83071046 27.18767119 -84.85234484 23.67921869 -97.03704834 20.51525879 C-98.07740234 20.2442334 -99.11775635 19.97320801 -100.18963623 19.69396973 C-101.57698975 19.33830933 -101.57698975 19.33830933 -102.99237061 18.97546387 C-105.09588623 18.34631348 -105.09588623 18.34631348 -106.09588623 17.34631348 C-106.20165333 15.4307538 -106.2804154 13.51367341 -106.34588623 11.59631348 C-106.67335608 7.49072132 -106.9145647 5.63203225 -109.15838623 2.09631348 C-112.42786042 0.14854162 -114.40920415 -0.38071644 -118.16229248 -0.15368652 C-121.44308855 0.69468094 -123.06232362 2.75814288 -125.09588623 5.34631348 C-127.00066442 9.15586986 -126.27154158 12.75347669 -125.09588623 16.72131348 C-124.76588623 17.58756348 -124.43588623 18.45381348 -124.09588623 19.34631348 C-137.04511607 18.92724455 -137.04511607 18.92724455 -142.09588623 14.34631348 C-143.8791418 12.42073234 -145.59653746 10.45853947 -147.28338623 8.44787598 C-149.64726675 5.70699727 -152.2075587 3.20560092 -154.81072998 0.69396973 C-156.09588623 -0.65368652 -156.09588623 -0.65368652 -156.09588623 -1.65368652 C-151.84686864 -2.30609117 -147.59651538 -2.94937261 -143.34588623 -3.59118652 C-142.15865967 -3.77358887 -140.97143311 -3.95599121 -139.74822998 -4.1439209 C-93.31182774 -11.12206878 -45.98717174 -8.41079539 0 0 Z " fill="#26CFD8" transform="translate(641.0958862304688,521.6536865234375)"/>
<path d="M0 0 C4.06029463 0.55573865 8.10055833 1.17917324 12.140625 1.8671875 C43.42254169 7.09991251 74.33078468 8.51406784 106 8 C107.58871532 11.28909463 109.16994425 14.58173773 110.75 17.875 C111.1934375 18.7928125 111.636875 19.710625 112.09375 20.65625 C114.22544691 25.10773473 116.25990309 29.55359685 118.0546875 34.15234375 C119.88726363 38.82596596 122.02245486 43.25539465 124.375 47.6875 C124.79346191 48.4805957 125.21192383 49.27369141 125.64306641 50.09082031 C130.3783435 58.9206893 135.62923627 67.43495671 140.8984375 75.953125 C143.35423452 79.92325617 145.71675641 83.92840306 148 88 C142.06898902 86.23672647 136.59121493 83.61390892 131 81 C130.32243652 80.68643555 129.64487305 80.37287109 128.94677734 80.04980469 C110.97719318 71.72813341 93.59888602 62.54236511 76.5390625 52.49023438 C73.83505171 50.90318804 71.12123012 49.33382437 68.40625 47.765625 C58.48179081 42.006507 48.91601007 36.06534288 39.69824219 29.23583984 C36.59906605 26.98051644 33.41896582 24.8430304 30.25 22.6875 C24.19940726 18.54922831 18.20559783 14.33638258 12.25 10.0625 C11.48719727 9.51875732 10.72439453 8.97501465 9.93847656 8.41479492 C6.34599089 5.82376509 3.0062615 3.28315401 0 0 Z " fill="#001D35" transform="translate(779,722)"/>
<path d="M0 0 C7.77672585 0.56257166 14.79974207 2.51380121 22.25 4.75 C30.95901873 7.30459221 39.65953364 9.75413006 48.5 11.8125 C49.77472168 12.11063599 49.77472168 12.11063599 51.07519531 12.41479492 C54.63941067 13.24136693 58.20710907 14.0453586 61.78125 14.828125 C62.8434375 15.07046875 63.905625 15.3128125 65 15.5625 C65.86625 15.74941406 66.7325 15.93632813 67.625 16.12890625 C70.64615765 17.23699532 72.54977309 18.91933974 75 21 C77.13727533 22.55587093 79.28010176 24.09771638 81.4375 25.625 C82.69278376 26.51682093 83.94799003 27.40875093 85.203125 28.30078125 C85.83798828 28.75146973 86.47285156 29.2021582 87.12695312 29.66650391 C88.87532342 30.91123782 90.6184971 32.16278548 92.359375 33.41796875 C105.6411589 42.98406208 119.07240673 52.39306034 133 61 C132.01 61.99 132.01 61.99 131 63 C122.14320459 59.7179812 113.32411454 56.37015579 104.5703125 52.8203125 C100.87337261 51.33295896 97.15393462 49.90969551 93.4296875 48.4921875 C80.81775725 43.6661589 68.67381795 38.67537916 56.90478516 32.04980469 C53.63239249 30.2462558 50.28577015 28.59462233 46.9375 26.9375 C46.28185059 26.61112549 45.62620117 26.28475098 44.95068359 25.94848633 C41.61646244 24.29042943 38.2764356 22.64450097 34.93359375 21.00390625 C26.08694589 16.6453346 17.52681203 11.95548307 9 7 C6.00796324 5.3187603 3.00685738 3.65456702 0 2 C0 1.34 0 0.68 0 0 Z " fill="#CDDBDD" transform="translate(708,704)"/>
<path d="M0 0 C0.66 0 1.32 0 2 0 C3.32448399 2.6821555 4.6346159 5.36987287 5.9375 8.0625 C6.49727539 9.19075195 6.49727539 9.19075195 7.06835938 10.34179688 C13.34473817 23.40345005 12.59397962 40.45984955 8 54 C7.67128906 55.0209375 7.34257813 56.041875 7.00390625 57.09375 C3.83627645 66.12533115 -0.8978117 73.96321974 -6 82 C-10.95998472 81.38367054 -14.93671966 79.20164371 -19.3125 76.9375 C-20.05306641 76.56044922 -20.79363281 76.18339844 -21.55664062 75.79492188 C-23.37387522 74.86871843 -25.18732404 73.93509371 -27 73 C-26 71 -25 69 -24 67 C-23.34 67 -22.68 67 -22 67 C-21.7525 66.154375 -21.505 65.30875 -21.25 64.4375 C-20.14817034 61.40746844 -18.81373313 58.83813077 -17.19140625 56.06640625 C-11.31146406 45.86808029 -7.41356536 35.28638401 -3.72216797 24.14404297 C-3.13138644 22.39007292 -2.49060678 20.6530139 -1.8359375 18.921875 C-0.75579827 15.14643509 -0.54462172 11.53336715 -0.375 7.625 C-0.33632813 6.88894531 -0.29765625 6.15289063 -0.2578125 5.39453125 C-0.16442002 3.59672594 -0.0811629 1.79839892 0 0 Z " fill="#011E36" transform="translate(674,562)"/>
<path d="M0 0 C0.99 0 1.98 0 3 0 C10.59811191 19.06904785 11.08184718 37.5973725 3.25 56.6875 C0.33944756 62.71985465 -3.40609805 68.35617824 -7 74 C-14.44302097 71.60309494 -21.71837152 68.84737559 -29 66 C-27.67667778 62.3349164 -26.05184444 59.44902226 -23.75 56.3125 C-11.83429662 39.57142913 -2.85393841 20.48872198 0 0 Z " fill="#011E36" transform="translate(643,554)"/>
<path d="M0 0 C5.85659906 1.66153012 11.4590134 3.47041916 17 6 C17 6.66 17 7.32 17 8 C17.66 8 18.32 8 19 8 C16.70422319 20.85635011 11.57644362 32.78654653 5 44 C4.0379684 45.72711185 3.07939091 47.45615424 2.125 49.1875 C1.4171122 50.45858156 0.70896103 51.72951673 0 53 C-0.66 53 -1.32 53 -2 53 C-2.2475 53.61875 -2.495 54.2375 -2.75 54.875 C-4.20628639 57.35068687 -5.37812506 57.95125002 -8 59 C-8.2784375 58.0409375 -8.2784375 58.0409375 -8.5625 57.0625 C-9.94246056 54.57873787 -9.94246056 54.57873787 -13.625 54.25 C-14.73875 54.1675 -15.8525 54.085 -17 54 C-16.01 53.505 -16.01 53.505 -15 53 C-15.09861328 51.89978516 -15.09861328 51.89978516 -15.19921875 50.77734375 C-14.95358242 47.35288438 -13.95841244 46.20256712 -11.8125 43.5625 C-2.45747992 30.85558002 -0.83638819 15.27508955 0 0 Z " fill="#EEF7F8" transform="translate(652,576)"/>
<path d="M0 0 C8.12261636 1.63518754 15.97771306 4.02389576 23.875 6.5 C24.56765961 6.71598846 25.26031921 6.93197693 25.97396851 7.1545105 C39.39195681 11.35050578 52.56296155 16.0877501 65.6887207 21.12719727 C67.4449359 21.79039251 69.21907109 22.40635703 71 23 C70.39009109 26.55780196 69.4216319 29.6828589 68 33 C67.34 33 66.68 33 66 33 C62.125 26.375 62.125 26.375 61 23 C58.27501769 22.00231094 58.27501769 22.00231094 55.0625 21.375 C49.11134904 20.05567452 49.11134904 20.05567452 47 19 C47 18.34 47 17.68 47 17 C45.78763672 16.83564453 45.78763672 16.83564453 44.55078125 16.66796875 C42.94783203 16.43013672 42.94783203 16.43013672 41.3125 16.1875 C40.25675781 16.03667969 39.20101562 15.88585937 38.11328125 15.73046875 C34.84946164 14.96467921 32.84737978 13.72318563 30 12 C27.58262605 11.26368901 25.14184978 10.60167921 22.6875 10 C14.7799752 7.99730846 7.46522652 5.2660366 0 2 C0 1.34 0 0.68 0 0 Z " fill="#EFF8F8" transform="translate(568,549)"/>
<path d="M0 0 C3.18457568 0.67169958 4.89274027 2.1676135 7.01953125 4.5703125 C8.89483059 7.89028688 8.45978738 10.71033655 8.07421875 14.4375 C7.41421875 14.1075 6.75421875 13.7775 6.07421875 13.4375 C5.34346227 11.1234378 4.67283617 8.78921131 4.07421875 6.4375 C3.74421875 6.7675 3.41421875 7.0975 3.07421875 7.4375 C0.741271 7.47991723 -1.59280692 7.47842937 -3.92578125 7.4375 C-4.58578125 7.4375 -5.24578125 7.4375 -5.92578125 7.4375 C-8.32500455 12.08599515 -8.12535534 16.34836074 -7.92578125 21.4375 C-8.25578125 20.4475 -8.58578125 19.4575 -8.92578125 18.4375 C-9.58578125 18.4375 -10.24578125 18.4375 -10.92578125 18.4375 C-13.03478568 15.01036781 -13.40473596 12.42878926 -12.92578125 8.4375 C-9.68190742 2.62089864 -6.95809798 -0.20578478 0 0 Z " fill="#EFF8F8" transform="translate(526.92578125,520.5625)"/>
<path d="M0 0 C1.58398438 1.2434082 1.58398438 1.2434082 3.09375 2.80078125 C3.64933594 3.36603516 4.20492188 3.93128906 4.77734375 4.51367188 C5.34582031 5.10728516 5.91429687 5.70089844 6.5 6.3125 C7.06847656 6.89451172 7.63695312 7.47652344 8.22265625 8.07617188 C9.82018005 9.71261447 11.4112547 11.35503917 13 13 C16.98224296 17.11180223 18.90226011 18.09669559 24.625 18.5625 C25.62789063 18.64628906 26.63078125 18.73007812 27.6640625 18.81640625 C28.43492187 18.87699219 29.20578125 18.93757812 30 19 C30.495 20.485 30.495 20.485 31 22 C25.50878472 22.77624509 20.90113488 23.11394622 16 20.2421875 C11.83686856 16.83073257 8.12811086 13.15170664 4.5 9.1875 C0.51134108 4.99404442 -4.55674953 3.58474381 -10 2 C-10 1.34 -10 0.68 -10 0 C-6.30634539 -0.75552026 -3.58064446 -1.26367935 0 0 Z " fill="#EEF7F7" transform="translate(486,521)"/>
<path d="M0 0 C5.61505108 0.66147857 10.88053576 1.95053995 16.3125 3.5 C17.12267578 3.72558594 17.93285156 3.95117188 18.76757812 4.18359375 C24.71449405 5.85724702 24.71449405 5.85724702 27 7 C27 7.66 27 8.32 27 9 C24.70774565 8.88628503 22.41617612 8.75869036 20.125 8.625 C18.84882812 8.55539062 17.57265625 8.48578125 16.2578125 8.4140625 C13 8 13 8 11 6 C9.68 6 8.36 6 7 6 C4.375 4.5625 4.375 4.5625 2 3 C1.34 2.67 0.68 2.34 0 2 C0 1.34 0 0.68 0 0 Z " fill="#F0F9F9" transform="translate(540,541)"/>
<path d="M0 0 C0 1.32 0 2.64 0 4 C-0.66 4 -1.32 4 -2 4 C-2.33 4.99 -2.66 5.98 -3 7 C-3.99 7.33 -4.98 7.66 -6 8 C-6.33 8.99 -6.66 9.98 -7 11 C-9.64 9.35 -12.28 7.7 -15 6 C-14 3 -14 3 -12.109375 2.05078125 C-4.24325381 -0.41063747 -4.24325381 -0.41063747 0 0 Z " fill="#EDF6F6" transform="translate(454,601)"/>
<path d="M0 0 C0 0.66 0 1.32 0 2 C0.66 2 1.32 2 2 2 C3.02104551 2.97850195 4.0206121 3.97980427 5 5 C5.66 5.33 6.32 5.66 7 6 C7.40729228 8.32156597 7.74438677 10.6568787 8 13 C3.13720713 10.41664129 -1.1684723 6.94561785 -5 3 C-5 2.34 -5 1.68 -5 1 C-2 0 -2 0 0 0 Z " fill="#EFF8F8" transform="translate(398,538)"/>
</svg>
